<svg width="20" height="20" viewBox="0 0 20 20" fill="none" xmlns="http://www.w3.org/2000/svg">
<path fillRule="evenodd" clipRule="evenodd" d="M1 12.25C1.41421 12.25 1.75 12.5858 1.75 13V17C1.75 17.3315 1.8817 17.6495 2.11612 17.8839C2.35054 18.1183 2.66848 18.25 3 18.25H17C17.3315 18.25 17.6495 18.1183 17.8839 17.8839C18.1183 17.6495 18.25 17.3315 18.25 17V13C18.25 12.5858 18.5858 12.25 19 12.25C19.4142 12.25 19.75 12.5858 19.75 13V17C19.75 17.7293 19.4603 18.4288 18.9445 18.9445C18.4288 19.4603 17.7293 19.75 17 19.75H3C2.27065 19.75 1.57118 19.4603 1.05546 18.9445C0.539731 18.4288 0.25 17.7293 0.25 17V13C0.25 12.5858 0.585786 12.25 1 12.25Z" fill="#FBFBFB"/>
<path fillRule="evenodd" clipRule="evenodd" d="M4.46967 7.46967C4.76256 7.17678 5.23744 7.17678 5.53033 7.46967L10 11.9393L14.4697 7.46967C14.7626 7.17678 15.2374 7.17678 15.5303 7.46967C15.8232 7.76256 15.8232 8.23744 15.5303 8.53033L10.5303 13.5303C10.2374 13.8232 9.76256 13.8232 9.46967 13.5303L4.46967 8.53033C4.17678 8.23744 4.17678 7.76256 4.46967 7.46967Z" fill="#FBFBFB"/>
<path fillRule="evenodd" clipRule="evenodd" d="M10 0.25C10.4142 0.25 10.75 0.585786 10.75 1V13C10.75 13.4142 10.4142 13.75 10 13.75C9.58579 13.75 9.25 13.4142 9.25 13V1C9.25 0.585786 9.58579 0.25 10 0.25Z" fill="#FBFBFB"/>
</svg>
